<svg xmlns="http://www.w3.org/2000/svg" viewBox="0 0 540 540"><path fill="#333" d="M270 0A270 270 0 0 0 0 270a270 270 0 0 0 270 270 270 270 0 0 0 270-270A270 270 0 0 0 270 0zm0 155a115 115 0 0 1 115 115 115 115 0 0 1-115 115 115 115 0 0 1-115-115 115 115 0 0 1 115-115z"/><path fill="#ff2d2c" d="m401 87-11 17a205 205 0 0 1 85 166 205 205 0 0 1-34 113l16 13a225 225 0 0 0 38-126 225 225 0 0 0-94-183zM139 87a225 225 0 0 0-94 183 225 225 0 0 0 39 126l17-11a205 205 0 0 1-36-115 205 205 0 0 1 85-166z"/><path fill="#a8a8a8" d="M270 120a150 150 0 0 0-150 150 150 150 0 0 0 150 150 150 150 0 0 0 150-150 150 150 0 0 0-150-150zm0 35a115 115 0 0 1 115 115 115 115 0 0 1-115 115 115 115 0 0 1-115-115 115 115 0 0 1 115-115z"/><path fill="#7f7f7f" d="M270 145a125 125 0 0 0-125 125 125 125 0 0 0 125 125 125 125 0 0 0 125-125 125 125 0 0 0-125-125zm-9 18v63a45 45 0 0 0-10 3l-37-51a108 108 0 0 1 47-15zm18 0a108 108 0 0 1 47 15l-37 51a45 45 0 0 0-10-3v-63zm61 26a108 108 0 0 1 29 39l-60 20a45 45 0 0 0-6-8l37-51zm-140 0 37 51a45 45 0 0 0-6 8l-60-20a108 108 0 0 1 29-39zm70 51a30 30 0 0 1 30 30 30 30 0 0 1-30 30 30 30 0 0 1-30-30 30 30 0 0 1 30-30zm-105 5 60 20a45 45 0 0 0 0 5 45 45 0 0 0 0 5l-60 20a108 108 0 0 1-3-25 108 108 0 0 1 3-25zm210 0a108 108 0 0 1 2 25 108 108 0 0 1-2 25l-60-20a45 45 0 0 0 0-5 45 45 0 0 0 0-5l60-20zm-144 47a45 45 0 0 0 6 8l-37 51a108 108 0 0 1-29-39l60-20zm78 0 60 20a108 108 0 0 1-29 39l-37-51a45 45 0 0 0 6-8zm-20 19 37 51a108 108 0 0 1-47 15v-63a45 45 0 0 0 10-3zm-38 0a45 45 0 0 0 10 3v63a108 108 0 0 1-47-15l37-51z"/><path fill="#ff2d2c" stroke="#ff2d2c" stroke-miterlimit="10" stroke-width="5" d="M165 436a10 10 0 0 1 3 2 7 7 0 0 1 1 3 7 7 0 0 1 0 3 12 12 0 0 1-1 3h-1l-17 14a15 15 0 0 1-4 1 20 20 0 0 1-4 0 18 18 0 0 1-4 0 12 12 0 0 1-4-2l-15-10a7 7 0 0 1-3-3 9 9 0 0 1-1-3 8 8 0 0 1 0-3 8 8 0 0 1 1-3l18-13a15 15 0 0 1 4-2 22 22 0 0 1 4 0 19 19 0 0 1 4 1 11 11 0 0 1 4 1zm-5 8a3 3 0 0 0 1 0 3 3 0 0 0 0-3 6 6 0 0 0-3-3l-11-8a9 9 0 0 0-2-1 9 9 0 0 0-3 0 8 8 0 0 0-2 0 5 5 0 0 0-2 1l-14 11v1a3 3 0 0 0-1 2 5 5 0 0 0 3 3l11 8a7 7 0 0 0 2 1 12 12 0 0 0 3 0 10 10 0 0 0 2 0 3 3 0 0 0 2-1zm43 26v1h-1l-7-2a8 8 0 0 0-3-1 10 10 0 0 0-2 1 9 9 0 0 0-2 0 4 4 0 0 0-2 2l-3 5a3 3 0 0 0-1 1 4 4 0 0 0 1 2 5 5 0 0 0 1 1 5 5 0 0 0 2 1l13 4a1 1 0 0 0 1 0 5 5 0 0 0 1 0l18-25a2 2 0 0 1 1-1 1 1 0 0 1 1 0l5 1v2l-21 30a2 2 0 0 1-1 0 2 2 0 0 1-1 1l-23-7a9 9 0 0 1-3-2 8 8 0 0 1-2-2 7 7 0 0 1-1-3 7 7 0 0 1 0-3l1-1 5-7a9 9 0 0 1 3-3 18 18 0 0 1 4-1 22 22 0 0 1 4-1 15 15 0 0 1 4 0l-1-11v-1a1 1 0 0 1 1 0l6 2 1 1zm60 8a1 1 0 0 0 1 0 3 3 0 0 0 1-1l2-5v-1h-1l-20-1a2 2 0 0 1-1-1h-1l2-4a1 1 0 0 1 1-1 2 2 0 0 1 1 0l27 1a1 1 0 0 1 1 0 1 1 0 0 1 0 1l-13 35a2 2 0 0 1 0 1 2 2 0 0 1-1 0l-28-1-1-1 2-4a1 1 0 0 1 0-1 3 3 0 0 1 1 0l21 1a4 4 0 0 0 1-1l4-10-1-1-20-1a2 2 0 0 1-1 0h-1l2-5a2 2 0 0 1 2 0zm41 16a1 1 0 0 0-1 0h1l20-4a2 2 0 0 1 1 0v5a1 1 0 0 1-1 1 2 2 0 0 1-1 0l-29 7-1-1v-5a2 2 0 0 1 1-1l24-30-1-1-20 4h-1l1-5a2 2 0 0 1 1-1l29-6h2l-1 4a2 2 0 0 1 0 1zm98-64h2l1 4a1 1 0 0 1 0 1 3 3 0 0 1 0 1l-6 4a7 7 0 0 0-2 2 11 11 0 0 0-1 2 8 8 0 0 0 0 2 4 4 0 0 0 0 2l2 6 1 1a3 3 0 0 0 2 1 5 5 0 0 0 3-2l12-9a5 5 0 0 0 0-1l-11-29a2 2 0 0 1 0-1 1 1 0 0 1 0-1l5-3c0-1 0 0 0 0h1l13 35a2 2 0 0 1 0 1 2 2 0 0 1-1 1l-18 15a8 8 0 0 1-3 1 8 8 0 0 1-3 1 8 8 0 0 1-3-1 7 7 0 0 1-2-2l-1-1-3-8a9 9 0 0 1 0-4 19 19 0 0 1 0-5 20 20 0 0 1 2-4 11 11 0 0 1 3-3z"/><path fill="#ff2d2c" fill-rule="evenodd" d="M252 90c2-1 4-4 4-7s-3-7-8-7h-25v22h12v-7h4l3 7h14zm-10-5h-7v-4h7a2 2 0 1 1 0 4zm21 13h27v-5h-15v-3h15v-6h-15v-3h15v-5h-27zm47-22h-12v22h24v-5h-12zm28 0h-12v22h24v-5h-12zm23-20H175v41h21V72h165a8 8 0 1 0 0-16zm-23 10H196v-4h142a2 2 0 1 1 0 4zM203 98h11V76h-11zm152 0h12V76h-12z" clip-rule="evenodd"/></svg>